<?xml version="1.0" encoding="UTF-8" standalone="no"?>
<!DOCTYPE svg PUBLIC "-//W3C//DTD SVG 1.1//EN"
 "http://www.w3.org/Graphics/SVG/1.1/DTD/svg11.dtd">
<!-- Generated by graphviz version 2.40.1 (20161225.0304)
 -->
<!-- Title: %3 Pages: 1 -->
<svg width="562pt" height="470pt"
 viewBox="0.00 0.00 562.02 470.00" xmlns="http://www.w3.org/2000/svg" xmlns:xlink="http://www.w3.org/1999/xlink">
<g id="graph0" class="graph" transform="scale(1 1) rotate(0) translate(4 466)">
<title>%3</title>
<polygon fill="#3f3f3f" stroke="transparent" points="-4,4 -4,-466 558.0208,-466 558.0208,4 -4,4"/>
<text text-anchor="middle" x="277.0104" y="-7.2" font-family="Times,serif" font-size="16.00" fill="#ffffff">Network Map</text>
<!-- R5 -->
<g id="node1" class="node">
<title>R5</title>
<polygon fill="#006699" stroke="#006699" points="101.1009,-218 25.3078,-218 25.3078,-146 101.1009,-146 101.1009,-218"/>
<text text-anchor="middle" x="63.2044" y="-177.8" font-family="Helvetica,sans-Serif" font-size="14.00" fill="#ffffff">R5</text>
</g>
<!-- R2 -->
<g id="node5" class="node">
<title>R2</title>
<polygon fill="#006699" stroke="#006699" points="210.1009,-340 134.3078,-340 134.3078,-268 210.1009,-268 210.1009,-340"/>
<text text-anchor="middle" x="172.2044" y="-299.8" font-family="Helvetica,sans-Serif" font-size="14.00" fill="#ffffff">R2</text>
</g>
<!-- R5&#45;&#45;R2 -->
<g id="edge5" class="edge">
<title>R5&#45;&#45;R2</title>
<path fill="none" stroke="#00ff00" stroke-dasharray="5,2" d="M58.8096,-218.043C59.1329,-229.0481 61.3111,-240.6894 67.388,-250 82.4923,-273.1419 110.8148,-286.8932 134.2141,-294.7226"/>
<text text-anchor="middle" x="118.6126" y="-238.8" font-family="Courier,monospace" font-size="14.00" fill="#ffffff"> &#160;&#160;&#160;&#160;&#160;&#160;&#160;&#160;&#160;&#160;&#160;</text>
<text text-anchor="middle" x="104.8093" y="-283.5226" font-family="Courier,monospace" font-size="14.00" fill="#ffffff">Eth 0/1</text>
<text text-anchor="middle" x="29.4048" y="-220.843" font-family="Courier,monospace" font-size="14.00" fill="#ffffff">Eth 0/0</text>
</g>
<!-- SW1 -->
<g id="node2" class="node">
<title>SW1</title>
<polygon fill="#006699" stroke="#006699" points="358.5429,-462 269.8658,-462 269.8658,-390 358.5429,-390 358.5429,-462"/>
<text text-anchor="middle" x="314.2044" y="-421.8" font-family="Helvetica,sans-Serif" font-size="14.00" fill="#ffffff">SW1</text>
</g>
<!-- R4 -->
<g id="node3" class="node">
<title>R4</title>
<polygon fill="#006699" stroke="#006699" points="225.1009,-96 149.3078,-96 149.3078,-24 225.1009,-24 225.1009,-96"/>
<text text-anchor="middle" x="187.2044" y="-55.8" font-family="Helvetica,sans-Serif" font-size="14.00" fill="#ffffff">R4</text>
</g>
<!-- R4&#45;&#45;R5 -->
<g id="edge7" class="edge">
<title>R4&#45;&#45;R5</title>
<path fill="none" stroke="#00ff00" stroke-dasharray="5,2" d="M150.336,-96.2737C134.4874,-111.8667 116.0014,-130.0545 100.1448,-145.6554"/>
<text text-anchor="middle" x="178.6126" y="-116.8" font-family="Courier,monospace" font-size="14.00" fill="#ffffff"> &#160;&#160;&#160;&#160;&#160;&#160;&#160;&#160;&#160;&#160;&#160;</text>
<text text-anchor="middle" x="70.74" y="-134.4554" font-family="Courier,monospace" font-size="14.00" fill="#ffffff">Eth 0/1</text>
<text text-anchor="middle" x="120.9312" y="-99.0737" font-family="Courier,monospace" font-size="14.00" fill="#ffffff">Eth 0/1</text>
</g>
<!-- R4&#45;&#45;SW1 -->
<g id="edge6" class="edge">
<title>R4&#45;&#45;SW1</title>
<path fill="none" stroke="#00ff00" stroke-dasharray="5,2" d="M221.112,-96.0854C225.5497,-101.8243 229.7476,-107.8904 233.2044,-114 284.5999,-204.838 304.1001,-328.9115 310.9,-389.5845"/>
<text text-anchor="middle" x="335.6126" y="-238.8" font-family="Courier,monospace" font-size="14.00" fill="#ffffff"> &#160;&#160;&#160;&#160;&#160;&#160;&#160;&#160;&#160;&#160;&#160;</text>
<text text-anchor="middle" x="281.4952" y="-378.3845" font-family="Courier,monospace" font-size="14.00" fill="#ffffff">Eth 0/4</text>
<text text-anchor="middle" x="191.7072" y="-98.8854" font-family="Courier,monospace" font-size="14.00" fill="#ffffff">Eth 0/0</text>
</g>
<!-- R6 -->
<g id="node4" class="node">
<title>R6</title>
<polygon fill="#006699" stroke="#006699" points="210.1009,-218 134.3078,-218 134.3078,-146 210.1009,-146 210.1009,-218"/>
<text text-anchor="middle" x="172.2044" y="-177.8" font-family="Helvetica,sans-Serif" font-size="14.00" fill="#ffffff">R6</text>
</g>
<!-- R6&#45;&#45;R2 -->
<g id="edge4" class="edge">
<title>R6&#45;&#45;R2</title>
<path fill="none" stroke="#00ff00" stroke-dasharray="5,2" d="M172.2044,-218.2737C172.2044,-233.8667 172.2044,-252.0545 172.2044,-267.6554"/>
<text text-anchor="middle" x="222.6126" y="-238.8" font-family="Courier,monospace" font-size="14.00" fill="#ffffff"> &#160;&#160;&#160;&#160;&#160;&#160;&#160;&#160;&#160;&#160;&#160;</text>
<text text-anchor="middle" x="142.7996" y="-256.4554" font-family="Courier,monospace" font-size="14.00" fill="#ffffff">Eth 0/2</text>
<text text-anchor="middle" x="142.7996" y="-221.0737" font-family="Courier,monospace" font-size="14.00" fill="#ffffff">Eth 0/1</text>
</g>
<!-- R2&#45;&#45;SW1 -->
<g id="edge3" class="edge">
<title>R2&#45;&#45;SW1</title>
<path fill="none" stroke="#00ff00" stroke-dasharray="5,2" d="M170.3053,-340.2441C171.402,-351.3854 174.4543,-363.0557 181.388,-372 202.6621,-399.4433 240.1892,-413.0124 269.939,-419.6791"/>
<text text-anchor="middle" x="231.6126" y="-360.8" font-family="Courier,monospace" font-size="14.00" fill="#ffffff"> &#160;&#160;&#160;&#160;&#160;&#160;&#160;&#160;&#160;&#160;&#160;</text>
<text text-anchor="middle" x="240.5342" y="-408.4791" font-family="Courier,monospace" font-size="14.00" fill="#ffffff">Eth 0/2</text>
<text text-anchor="middle" x="140.9005" y="-343.0441" font-family="Courier,monospace" font-size="14.00" fill="#ffffff">Eth 0/0</text>
</g>
<!-- R1 -->
<g id="node6" class="node">
<title>R1</title>
<polygon fill="#006699" stroke="#006699" points="400.1009,-340 324.3078,-340 324.3078,-268 400.1009,-268 400.1009,-340"/>
<text text-anchor="middle" x="362.2044" y="-299.8" font-family="Helvetica,sans-Serif" font-size="14.00" fill="#ffffff">R1</text>
</g>
<!-- R1&#45;&#45;SW1 -->
<g id="edge1" class="edge">
<title>R1&#45;&#45;SW1</title>
<path fill="none" stroke="#00ff00" stroke-dasharray="5,2" d="M347.9328,-340.2737C341.7978,-355.8667 334.6419,-374.0545 328.5039,-389.6554"/>
<text text-anchor="middle" x="389.6126" y="-360.8" font-family="Courier,monospace" font-size="14.00" fill="#ffffff"> &#160;&#160;&#160;&#160;&#160;&#160;&#160;&#160;&#160;&#160;&#160;</text>
<text text-anchor="middle" x="357.9087" y="-378.4554" font-family="Courier,monospace" font-size="14.00" fill="#ffffff">Eth 0/1</text>
<text text-anchor="middle" x="318.528" y="-343.0737" font-family="Courier,monospace" font-size="14.00" fill="#ffffff">Eth 0/0</text>
</g>
<!-- R3 -->
<g id="node7" class="node">
<title>R3</title>
<polygon fill="#006699" stroke="#006699" points="509.1009,-340 433.3078,-340 433.3078,-268 509.1009,-268 509.1009,-340"/>
<text text-anchor="middle" x="471.2044" y="-299.8" font-family="Helvetica,sans-Serif" font-size="14.00" fill="#ffffff">R3</text>
</g>
<!-- R3&#45;&#45;SW1 -->
<g id="edge2" class="edge">
<title>R3&#45;&#45;SW1</title>
<path fill="none" stroke="#00ff00" stroke-dasharray="5,2" d="M462.772,-340.3007C458.6943,-351.575 452.7588,-363.31 444.2044,-372 421.1449,-395.4251 386.4313,-409.1415 358.6747,-416.8847"/>
<text text-anchor="middle" x="503.6126" y="-360.8" font-family="Courier,monospace" font-size="14.00" fill="#ffffff"> &#160;&#160;&#160;&#160;&#160;&#160;&#160;&#160;&#160;&#160;&#160;</text>
<text text-anchor="middle" x="388.0795" y="-405.6847" font-family="Courier,monospace" font-size="14.00" fill="#ffffff">Eth 0/3</text>
<text text-anchor="middle" x="433.3673" y="-343.1007" font-family="Courier,monospace" font-size="14.00" fill="#ffffff">Eth 0/0</text>
</g>
</g>
</svg>
