<?xml version="1.0" encoding="UTF-8" standalone="no"?>
<!DOCTYPE svg PUBLIC "-//W3C//DTD SVG 1.1//EN"
 "http://www.w3.org/Graphics/SVG/1.1/DTD/svg11.dtd">
<!-- Generated by graphviz version 2.40.1 (20161225.0304)
 -->
<!-- Title: %3 Pages: 1 -->
<svg width="514pt" height="348pt"
 viewBox="0.00 0.00 513.75 348.00" xmlns="http://www.w3.org/2000/svg" xmlns:xlink="http://www.w3.org/1999/xlink">
<g id="graph0" class="graph" transform="scale(1 1) rotate(0) translate(4 344)">
<title>%3</title>
<polygon fill="#333333" stroke="transparent" points="-4,4 -4,-344 509.7539,-344 509.7539,4 -4,4"/>
<text text-anchor="middle" x="252.877" y="-7.2" font-family="Times,serif" font-size="16.00" fill="#ffffff">Network Map</text>
<!-- R3 -->
<g id="node1" class="node">
<title>R3</title>
<polygon fill="#006699" stroke="#006699" points="207.8341,-218 132.041,-218 132.041,-146 207.8341,-146 207.8341,-218"/>
<text text-anchor="middle" x="169.9375" y="-177.8" font-family="Helvetica,sans-Serif" font-size="14.00" fill="#ffffff">R3</text>
</g>
<!-- R5 -->
<g id="node5" class="node">
<title>R5</title>
<polygon fill="#006699" stroke="#006699" points="83.8341,-340 8.041,-340 8.041,-268 83.8341,-268 83.8341,-340"/>
<text text-anchor="middle" x="45.9375" y="-299.8" font-family="Helvetica,sans-Serif" font-size="14.00" fill="#ffffff">R5</text>
</g>
<!-- R3&#45;&#45;R5 -->
<g id="edge3" class="edge">
<title>R3&#45;&#45;R5</title>
<path fill="none" stroke="#00ff00" stroke-dasharray="5,2" d="M132.0181,-193.0065C109.55,-201.3719 82.2168,-215.0749 65.1211,-236 57.7484,-245.0242 53.2058,-256.715 50.4082,-267.8507"/>
<text text-anchor="middle" x="116.3457" y="-238.8" font-family="Courier,monospace" font-size="14.00" fill="#ffffff"> &#160;&#160;&#160;&#160;&#160;&#160;&#160;&#160;&#160;&#160;&#160;</text>
<text text-anchor="middle" x="25.2041" y="-256.6507" font-family="Courier,monospace" font-size="14.00" fill="#ffffff">Eth0/0</text>
<text text-anchor="middle" x="106.814" y="-181.8065" font-family="Courier,monospace" font-size="14.00" fill="#ffffff">Eth0/2</text>
</g>
<!-- R4 -->
<g id="node7" class="node">
<title>R4</title>
<polygon fill="#006699" stroke="#006699" points="207.8341,-340 132.041,-340 132.041,-268 207.8341,-268 207.8341,-340"/>
<text text-anchor="middle" x="169.9375" y="-299.8" font-family="Helvetica,sans-Serif" font-size="14.00" fill="#ffffff">R4</text>
</g>
<!-- R3&#45;&#45;R4 -->
<g id="edge2" class="edge">
<title>R3&#45;&#45;R4</title>
<path fill="none" stroke="#00ff00" stroke-dasharray="5,2" d="M169.9375,-218.2737C169.9375,-233.8667 169.9375,-252.0545 169.9375,-267.6554"/>
<text text-anchor="middle" x="220.3457" y="-238.8" font-family="Courier,monospace" font-size="14.00" fill="#ffffff"> &#160;&#160;&#160;&#160;&#160;&#160;&#160;&#160;&#160;&#160;&#160;</text>
<text text-anchor="middle" x="144.7334" y="-256.4554" font-family="Courier,monospace" font-size="14.00" fill="#ffffff">Eth0/0</text>
<text text-anchor="middle" x="144.7334" y="-221.0737" font-family="Courier,monospace" font-size="14.00" fill="#ffffff">Eth0/1</text>
</g>
<!-- SW2 -->
<g id="node2" class="node">
<title>SW2</title>
<polygon fill="#006699" stroke="#006699" points="338.2761,-340 249.599,-340 249.599,-268 338.2761,-268 338.2761,-340"/>
<text text-anchor="middle" x="293.9375" y="-299.8" font-family="Helvetica,sans-Serif" font-size="14.00" fill="#ffffff">SW2</text>
</g>
<!-- R2 -->
<g id="node3" class="node">
<title>R2</title>
<polygon fill="#006699" stroke="#006699" points="331.8341,-218 256.041,-218 256.041,-146 331.8341,-146 331.8341,-218"/>
<text text-anchor="middle" x="293.9375" y="-177.8" font-family="Helvetica,sans-Serif" font-size="14.00" fill="#ffffff">R2</text>
</g>
<!-- R2&#45;&#45;SW2 -->
<g id="edge1" class="edge">
<title>R2&#45;&#45;SW2</title>
<path fill="none" stroke="#00ff00" stroke-dasharray="5,2" d="M293.9375,-218.2737C293.9375,-233.8667 293.9375,-252.0545 293.9375,-267.6554"/>
<text text-anchor="middle" x="344.3457" y="-238.8" font-family="Courier,monospace" font-size="14.00" fill="#ffffff"> &#160;&#160;&#160;&#160;&#160;&#160;&#160;&#160;&#160;&#160;&#160;</text>
<text text-anchor="middle" x="264.5327" y="-256.4554" font-family="Courier,monospace" font-size="14.00" fill="#ffffff">Eth0/11</text>
<text text-anchor="middle" x="268.7334" y="-221.0737" font-family="Courier,monospace" font-size="14.00" fill="#ffffff">Eth0/1</text>
</g>
<!-- R1 -->
<g id="node4" class="node">
<title>R1</title>
<polygon fill="#006699" stroke="#006699" points="455.8341,-218 380.041,-218 380.041,-146 455.8341,-146 455.8341,-218"/>
<text text-anchor="middle" x="417.9375" y="-177.8" font-family="Helvetica,sans-Serif" font-size="14.00" fill="#ffffff">R1</text>
</g>
<!-- SW1 -->
<g id="node6" class="node">
<title>SW1</title>
<polygon fill="#006699" stroke="#006699" points="338.2761,-96 249.599,-96 249.599,-24 338.2761,-24 338.2761,-96"/>
<text text-anchor="middle" x="293.9375" y="-55.8" font-family="Helvetica,sans-Serif" font-size="14.00" fill="#ffffff">SW1</text>
</g>
<!-- SW1&#45;&#45;R3 -->
<g id="edge6" class="edge">
<title>SW1&#45;&#45;R3</title>
<path fill="none" stroke="#00ff00" stroke-dasharray="5,2" d="M249.5171,-73.5283C228.4651,-82.032 204.5979,-95.0565 189.1211,-114 181.7484,-123.0242 177.2058,-134.715 174.4082,-145.8507"/>
<text text-anchor="middle" x="240.3457" y="-116.8" font-family="Courier,monospace" font-size="14.00" fill="#ffffff"> &#160;&#160;&#160;&#160;&#160;&#160;&#160;&#160;&#160;&#160;&#160;</text>
<text text-anchor="middle" x="149.2041" y="-134.6507" font-family="Courier,monospace" font-size="14.00" fill="#ffffff">Eth0/0</text>
<text text-anchor="middle" x="224.313" y="-62.3283" font-family="Courier,monospace" font-size="14.00" fill="#ffffff">Eth0/3</text>
</g>
<!-- SW1&#45;&#45;R2 -->
<g id="edge5" class="edge">
<title>SW1&#45;&#45;R2</title>
<path fill="none" stroke="#00ff00" stroke-dasharray="5,2" d="M293.9375,-96.2737C293.9375,-111.8667 293.9375,-130.0545 293.9375,-145.6554"/>
<text text-anchor="middle" x="344.3457" y="-116.8" font-family="Courier,monospace" font-size="14.00" fill="#ffffff"> &#160;&#160;&#160;&#160;&#160;&#160;&#160;&#160;&#160;&#160;&#160;</text>
<text text-anchor="middle" x="268.7334" y="-134.4554" font-family="Courier,monospace" font-size="14.00" fill="#ffffff">Eth0/0</text>
<text text-anchor="middle" x="268.7334" y="-99.0737" font-family="Courier,monospace" font-size="14.00" fill="#ffffff">Eth0/2</text>
</g>
<!-- SW1&#45;&#45;R1 -->
<g id="edge4" class="edge">
<title>SW1&#45;&#45;R1</title>
<path fill="none" stroke="#00ff00" stroke-dasharray="5,2" d="M338.1636,-74.5922C358.2629,-83.2232 380.8638,-96.0456 395.9375,-114 403.5169,-123.0278 408.5006,-134.7196 411.7713,-145.855"/>
<text text-anchor="middle" x="455.3457" y="-116.8" font-family="Courier,monospace" font-size="14.00" fill="#ffffff"> &#160;&#160;&#160;&#160;&#160;&#160;&#160;&#160;&#160;&#160;&#160;</text>
<text text-anchor="middle" x="386.5672" y="-134.655" font-family="Courier,monospace" font-size="14.00" fill="#ffffff">Eth0/0</text>
<text text-anchor="middle" x="363.3677" y="-63.3922" font-family="Courier,monospace" font-size="14.00" fill="#ffffff">Eth0/1</text>
</g>
</g>
</svg>
